<?xml version="1.0" standalone="no"?>
<!DOCTYPE svg PUBLIC "-//W3C//DTD SVG 20010904//EN"
 "http://www.w3.org/TR/2001/REC-SVG-20010904/DTD/svg10.dtd">
<svg version="1.0" xmlns="http://www.w3.org/2000/svg"
 width="848.000000pt" height="848.000000pt" viewBox="0 0 848.000000 848.000000"
 preserveAspectRatio="xMidYMid meet">
<metadata>
Created by potrace 1.11, written by Peter Selinger 2001-2013
</metadata>
<g transform="translate(0.000000,848.000000) scale(0.100000,-0.100000)"
fill="#000000" stroke="none">
<path d="M4635 5697 c-22 -12 -49 -29 -59 -39 -11 -10 -23 -18 -28 -18 -4 0
-94 -53 -200 -117 -106 -64 -202 -122 -213 -128 -67 -37 -96 -59 -93 -69 2 -6
85 -148 186 -316 101 -168 189 -314 195 -325 7 -11 24 -39 40 -63 15 -24 27
-45 27 -48 0 -2 23 -41 50 -87 28 -45 55 -89 60 -97 4 -8 72 -121 150 -250 78
-129 147 -244 153 -255 7 -10 22 -36 35 -57 l22 -38 440 0 c242 0 440 4 440 8
0 4 -34 63 -75 131 -41 67 -75 124 -75 126 0 2 -16 27 -35 56 -19 30 -35 59
-35 65 0 7 -3 14 -7 16 -10 4 -103 157 -103 169 0 5 -4 9 -10 9 -5 0 -10 4
-10 10 0 8 -52 98 -115 200 -12 19 -54 89 -94 155 -39 66 -76 127 -81 135 -5
8 -32 52 -59 98 -28 46 -51 85 -51 87 0 2 -16 27 -35 56 -19 30 -35 59 -35 66
0 7 -4 13 -9 13 -5 0 -16 15 -25 33 -31 63 -293 491 -302 493 -5 2 -27 -7 -49
-19z"/>
<path d="M3765 4954 c-66 -41 -127 -77 -135 -81 -8 -4 -38 -22 -67 -40 -29
-18 -54 -33 -57 -33 -3 0 -25 -13 -49 -30 -25 -16 -50 -30 -56 -30 -6 0 -11
-4 -11 -9 0 -5 -8 -11 -17 -14 -21 -7 -72 -37 -90 -54 -7 -6 -18 -13 -24 -15
-11 -4 35 -90 69 -130 8 -10 11 -18 7 -18 -4 0 -1 -8 7 -17 21 -25 213 -347
209 -352 -1 -2 4 -8 13 -13 9 -5 16 -14 16 -20 0 -5 14 -30 30 -55 17 -24 30
-45 30 -47 0 -4 92 -157 110 -182 11 -16 15 -46 14 -113 l-1 -92 101 3 101 3
-1 88 0 87 337 0 c215 0 340 4 344 10 3 6 2 10 -3 10 -4 0 -16 15 -26 33 -9
17 -22 41 -29 52 -34 56 -193 323 -203 340 -6 11 -27 46 -47 77 -20 31 -37 61
-37 67 0 5 -6 16 -13 23 -7 7 -96 151 -197 321 -101 169 -189 307 -195 306 -5
0 -64 -34 -130 -75z"/>
<path d="M3090 4330 c0 -5 -9 -10 -19 -10 -11 0 -21 -4 -23 -9 -3 -7 -74 -52
-193 -121 -16 -9 -95 -57 -175 -105 -80 -49 -158 -95 -173 -103 -31 -16 -46
-40 -30 -51 6 -3 12 -10 14 -16 2 -5 19 -36 37 -67 l34 -58 444 0 444 0 -27
48 c-16 26 -57 96 -93 155 -75 124 -98 162 -160 269 -29 49 -51 77 -62 78 -10
0 -18 -4 -18 -10z"/>
<path d="M6280 3866 c-66 -29 -90 -98 -56 -163 41 -80 162 -78 201 3 18 38 19
61 5 100 -20 54 -95 84 -150 60z m81 -15 c21 -4 51 -45 56 -76 11 -69 -43
-122 -112 -109 -47 8 -75 45 -75 98 0 65 57 103 131 87z"/>
<path d="M6272 3754 c-2 -57 0 -65 12 -55 8 6 12 21 9 31 -8 29 14 24 46 -10
15 -17 30 -28 34 -24 3 4 0 13 -8 21 -17 17 -19 39 -5 48 16 10 12 42 -6 49
-9 3 -30 6 -48 6 l-32 0 -2 -66z m66 43 c19 -13 14 -24 -13 -29 -28 -6 -38 3
-29 25 6 16 20 17 42 4z"/>
<path d="M3489 3758 c0 -18 0 -86 1 -150 0 -65 -1 -118 -3 -118 -2 0 -23 10
-47 21 -145 70 -324 39 -445 -77 -84 -81 -115 -152 -120 -278 -7 -172 107
-328 284 -389 32 -12 206 -18 206 -8 0 2 7 4 16 6 8 1 35 12 59 24 53 26 50
25 50 1 0 -19 6 -20 90 -19 l90 1 0 137 c1 199 1 821 0 854 l0 27 -90 0 -90 0
-1 -32z m-122 -411 c170 -89 161 -323 -14 -401 -57 -25 -138 -17 -196 19 -126
80 -138 249 -26 352 56 51 168 65 236 30z"/>
<path d="M4650 3641 l0 -151 -57 27 c-78 35 -218 38 -303 5 -64 -25 -133 -79
-178 -138 -66 -89 -94 -242 -61 -336 10 -27 15 -48 13 -48 -2 0 7 -18 21 -40
14 -22 25 -42 25 -44 0 -8 63 -69 101 -97 18 -14 67 -36 107 -49 91 -28 178
-25 270 12 59 24 62 25 62 6 0 -17 7 -19 93 -16 l92 3 0 505 0 505 -93 3 -92
3 0 -150z m-151 -283 c50 -15 111 -67 136 -117 15 -30 17 -103 4 -179 -4 -21
-81 -98 -114 -113 -104 -50 -249 8 -290 115 -42 111 -8 211 95 277 45 29 107
35 169 17z"/>
<path d="M6019 3550 c-146 -26 -236 -157 -205 -299 8 -36 56 -101 75 -101 6 0
11 -4 11 -9 0 -10 104 -43 223 -71 130 -30 161 -50 150 -101 -10 -42 -132 -70
-209 -46 -40 12 -72 44 -77 77 -4 24 -6 24 -103 24 l-99 0 2 -42 c4 -89 82
-171 188 -198 57 -15 83 -18 165 -18 102 -1 161 13 220 51 71 45 92 75 107
143 23 109 -15 188 -110 234 -29 14 -101 37 -162 51 -60 14 -117 28 -125 32
-8 3 -17 7 -20 7 -3 1 -15 8 -26 16 -40 28 -13 96 41 101 110 10 171 -11 181
-61 6 -26 10 -29 53 -32 25 -2 71 -2 102 0 l57 4 -13 54 c-7 29 -24 69 -39 89
-29 37 -98 77 -156 90 -46 10 -186 13 -231 5z"/>
<path d="M2325 3544 c-127 -33 -229 -112 -282 -219 -30 -60 -37 -91 -37 -170
-1 -80 9 -126 38 -183 50 -98 108 -146 256 -212 48 -21 231 -1 275 30 6 4 18
10 28 13 13 5 17 2 15 -11 -3 -15 8 -17 84 -20 58 -1 89 2 94 10 4 6 8 177 8
380 l1 368 -92 0 c-90 0 -99 -3 -94 -32 1 -11 -13 -10 -24 0 -36 33 -209 61
-270 46z m131 -185 c8 -6 14 -8 14 -4 0 4 11 0 25 -9 14 -9 25 -14 25 -11 0
12 61 -57 76 -87 19 -38 25 -129 11 -173 -16 -48 -53 -90 -105 -118 -102 -56
-236 -15 -294 89 -20 36 -29 126 -17 169 11 40 72 111 115 133 40 21 130 28
150 11z"/>
<path d="M3767 3533 c-3 -10 -4 -184 -3 -388 l1 -370 100 -2 100 -2 0 387 0
387 -97 3 c-86 2 -97 1 -101 -15z"/>
<path d="M5170 3528 c-267 -100 -355 -408 -181 -628 48 -60 64 -73 141 -111
58 -29 75 -33 161 -34 85 -2 102 1 157 25 57 26 60 27 65 9 4 -16 16 -18 94
-18 l90 0 0 380 1 379 -94 0 c-86 0 -94 -2 -94 -19 0 -19 -3 -19 -57 6 -80 35
-204 40 -283 11z m222 -182 c82 -39 123 -109 120 -200 -4 -92 -44 -157 -120
-194 -143 -71 -313 40 -312 204 0 40 29 115 52 137 24 23 88 69 88 64 0 -4 10
-2 23 3 32 14 106 7 149 -14z"/>
</g>
</svg>
